<svg width="670" height="505" viewBox="0 0 670 505" fill="none" xmlns="http://www.w3.org/2000/svg">
<path d="M344.279 466.569L595.111 330.677C596.919 329.737 598.441 328.328 599.518 326.598C600.595 324.869 601.188 322.881 601.234 320.844C601.28 318.807 600.778 316.795 599.781 315.018C598.783 313.241 597.326 311.765 595.563 310.744L352.403 165.388C350.543 164.283 348.425 163.687 346.262 163.657C344.098 163.628 341.965 164.167 340.075 165.22L74.7385 313.809C72.9331 314.784 71.425 316.229 70.3739 317.991C69.3228 319.753 68.7679 321.766 68.7679 323.818C68.7679 325.869 69.3228 327.883 70.3739 329.644C71.425 331.406 72.9331 332.851 74.7385 333.826L311.332 466.335C316.362 469.139 322.017 470.63 327.776 470.671C333.534 470.712 339.21 469.302 344.279 466.569Z" fill="#00275E"/>
<path d="M301.818 264.732C301.818 264.732 251.082 291.817 239.073 356.438C239.073 356.438 288.485 366.907 354.648 312.185" fill="#EB773A"/>
<path d="M301.182 272.973C301.182 272.973 279.541 292.386 273.444 306.088C267.347 319.789 259.391 339.839 259.391 339.839C259.391 339.839 297.497 343.088 333.325 321.163C369.153 299.237 335 258.233 301.182 272.973Z" fill="#FFAE46"/>
<path d="M322.689 266.156C321.382 268.35 299.088 280.912 294.917 299.036L302.187 293.525C302.187 293.525 289.825 310.845 284.582 320.811C284.582 320.811 314.732 308.801 313.794 309.521L305.269 315.987C305.269 315.987 328.2 315.501 343.794 301.565C359.388 287.629 337.948 263.325 337.948 263.325L322.689 266.156Z" fill="#FAD374"/>
<path d="M389.974 265.988C389.974 265.988 386.037 291.532 377.612 297.813C369.187 304.094 341.834 324.915 341.834 324.915L337.295 318.918C337.295 318.918 356.155 285.301 359.488 270.46C362.822 255.62 389.974 265.988 389.974 265.988Z" fill="#68E1FD"/>
<path opacity="0.61" d="M389.974 265.988C389.974 265.988 386.037 291.532 377.612 297.813C369.187 304.094 341.834 324.915 341.834 324.915L337.295 318.918C337.295 318.918 356.155 285.301 359.488 270.46C362.822 255.62 389.974 265.988 389.974 265.988Z" fill="#363636"/>
<path d="M362.738 230.043C362.738 230.043 337.077 226.927 328.669 233.393C320.26 239.858 292.891 260.494 292.891 260.494L297.43 266.491C297.43 266.491 334.899 257.429 350.092 258.25C365.284 259.07 362.738 230.043 362.738 230.043Z" fill="#68E1FD"/>
<path opacity="0.61" d="M362.738 230.043C362.738 230.043 337.077 226.927 328.669 233.393C320.26 239.858 292.891 260.494 292.891 260.494L297.43 266.491C297.43 266.491 334.899 257.429 350.092 258.25C365.284 259.07 362.738 230.043 362.738 230.043Z" fill="#363636"/>
<path d="M485.934 187.163C492.718 176.566 498.195 165.188 502.249 153.277C502.249 153.277 487.341 153.445 465.064 160.078C466.839 171.418 475.901 180.463 485.934 187.163Z" fill="#68E1FD"/>
<path d="M426.173 233.199C433.252 227.836 434.049 216.967 427.954 208.923C421.859 200.878 411.18 198.705 404.102 204.068C397.023 209.431 396.226 220.3 402.321 228.344C408.416 236.389 419.095 238.562 426.173 233.199Z" fill="#68E1FD"/>
<path d="M554.308 113.178C554.308 113.178 413.943 148.085 342.621 251.432C342.621 251.432 325.871 269.305 333.962 279.237C342.052 289.17 369.019 281.264 369.019 281.264C369.019 281.264 457.643 256.106 554.308 113.178Z" fill="#68E1FD"/>
<path d="M342.621 251.432C342.621 251.432 324.933 249.288 319.171 253.694C313.409 258.099 294.515 272.37 294.515 272.37L297.647 276.507C297.647 276.507 323.476 270.259 333.928 270.829C344.38 271.398 342.621 251.432 342.621 251.432Z" fill="#68E1FD"/>
<path d="M363.927 279.556C363.927 279.556 361.214 297.16 355.402 301.548C349.589 305.937 330.746 320.225 330.746 320.225L327.63 316.138C327.63 316.138 340.628 292.972 342.923 282.738C345.217 272.504 363.927 279.556 363.927 279.556Z" fill="#68E1FD"/>
<path opacity="0.29" d="M342.621 251.432C342.621 251.432 324.933 249.288 319.171 253.694C313.409 258.099 294.515 272.37 294.515 272.37L297.647 276.507C297.647 276.507 323.476 270.259 333.928 270.829C344.38 271.398 342.621 251.432 342.621 251.432Z" fill="#363636"/>
<path opacity="0.29" d="M363.927 279.556C363.927 279.556 361.214 297.16 355.402 301.548C349.589 305.937 330.746 320.225 330.746 320.225L327.63 316.138C327.63 316.138 340.628 292.972 342.923 282.738C345.217 272.504 363.927 279.556 363.927 279.556Z" fill="#363636"/>
<path d="M486.119 138.353C486.119 138.353 485.633 162.088 510.758 170.882L496.185 187.431C496.185 187.431 464.628 169.692 469.519 146.393L486.119 138.353Z" fill="#68E1FD"/>
<path d="M395.987 193.377C395.987 193.377 396.271 233.577 433.758 245.017L405.919 264.045C405.919 264.045 365.719 250.092 373.173 214.331L395.987 193.377Z" fill="#68E1FD"/>
<path d="M463.744 187.581C466.236 185.693 466.726 182.142 464.838 179.65C462.95 177.157 459.398 176.668 456.906 178.556C454.414 180.444 453.924 183.995 455.813 186.488C457.701 188.98 461.252 189.469 463.744 187.581Z" fill="#68E1FD"/>
<path d="M443.185 217.236C449.712 212.34 451.035 203.08 446.14 196.553C441.244 190.025 431.984 188.703 425.457 193.598C418.929 198.494 417.607 207.754 422.502 214.281C427.398 220.808 436.658 222.131 443.185 217.236Z" fill="#68E1FD"/>
<path opacity="0.61" d="M486.119 138.353C486.119 138.353 485.633 162.088 510.758 170.882L496.185 187.431C496.185 187.431 464.628 169.692 469.519 146.393L486.119 138.353Z" fill="#606060"/>
<path opacity="0.61" d="M395.987 193.377C395.987 193.377 396.271 233.577 433.758 245.017L405.919 264.045C405.919 264.045 365.719 250.092 373.173 214.331L395.987 193.377Z" fill="#606060"/>
<path opacity="0.61" d="M463.744 187.581C466.236 185.693 466.726 182.142 464.838 179.65C462.95 177.157 459.398 176.668 456.906 178.556C454.414 180.444 453.924 183.995 455.813 186.488C457.701 188.98 461.252 189.469 463.744 187.581Z" fill="#606060"/>
<path opacity="0.61" d="M443.185 217.236C449.712 212.34 451.035 203.08 446.14 196.553C441.244 190.025 431.984 188.703 425.457 193.598C418.929 198.494 417.607 207.754 422.502 214.281C427.398 220.808 436.658 222.131 443.185 217.236Z" fill="#606060"/>
<path d="M513.052 290.895C512.608 290.895 512.182 291.072 511.868 291.386C511.554 291.7 511.378 292.126 511.378 292.57C511.378 293.015 511.554 293.441 511.868 293.755C512.182 294.069 512.608 294.245 513.052 294.245C513.497 294.245 513.923 294.069 514.237 293.755C514.551 293.441 514.727 293.015 514.727 292.57C514.727 292.126 514.551 291.7 514.237 291.386C513.923 291.072 513.497 290.895 513.052 290.895Z" fill="white"/>
<path d="M428.197 357.611V358.683C428.197 359.127 428.373 359.553 428.688 359.867C429.002 360.181 429.428 360.358 429.872 360.358C430.316 360.358 430.742 360.181 431.056 359.867C431.371 359.553 431.547 359.127 431.547 358.683V357.611C431.547 357.166 431.371 356.74 431.056 356.426C430.742 356.112 430.316 355.936 429.872 355.936C429.428 355.936 429.002 356.112 428.688 356.426C428.373 356.74 428.197 357.166 428.197 357.611Z" fill="white"/>
<path d="M310.88 384.277V385.349C310.88 385.793 311.056 386.219 311.371 386.533C311.685 386.847 312.111 387.024 312.555 387.024C312.999 387.024 313.425 386.847 313.739 386.533C314.054 386.219 314.23 385.793 314.23 385.349V384.277C314.23 383.832 314.054 383.406 313.739 383.092C313.425 382.778 312.999 382.602 312.555 382.602C312.111 382.602 311.685 382.778 311.371 383.092C311.056 383.406 310.88 383.832 310.88 384.277Z" fill="white"/>
<path d="M420.274 302.62C419.83 302.62 419.404 302.797 419.09 303.111C418.776 303.425 418.599 303.851 418.599 304.295C418.599 304.74 418.776 305.166 419.09 305.48C419.404 305.794 419.83 305.97 420.274 305.97C420.718 305.97 421.145 305.794 421.459 305.48C421.773 305.166 421.949 304.74 421.949 304.295C421.949 303.851 421.773 303.425 421.459 303.111C421.145 302.797 420.718 302.62 420.274 302.62Z" fill="white"/>
<path d="M219.777 299.388C219.333 299.388 218.906 299.564 218.592 299.878C218.278 300.192 218.102 300.618 218.102 301.063C218.102 301.507 218.278 301.933 218.592 302.247C218.906 302.561 219.333 302.738 219.777 302.738C220.221 302.738 220.647 302.561 220.961 302.247C221.275 301.933 221.452 301.507 221.452 301.063C221.452 300.618 221.275 300.192 220.961 299.878C220.647 299.564 220.221 299.388 219.777 299.388Z" fill="white"/>
<path d="M144.502 304.295V305.367C144.502 305.812 144.679 306.238 144.993 306.552C145.307 306.866 145.733 307.042 146.177 307.042C146.621 307.042 147.048 306.866 147.362 306.552C147.676 306.238 147.852 305.812 147.852 305.367V304.295C147.852 303.851 147.676 303.425 147.362 303.111C147.048 302.797 146.621 302.62 146.177 302.62C145.733 302.62 145.307 302.797 144.993 303.111C144.679 303.425 144.502 303.851 144.502 304.295Z" fill="white"/>
<path d="M180.314 357.008C179.87 357.008 179.443 357.184 179.129 357.498C178.815 357.812 178.639 358.238 178.639 358.683C178.639 359.127 178.815 359.553 179.129 359.867C179.443 360.181 179.87 360.358 180.314 360.358C180.758 360.358 181.184 360.181 181.498 359.867C181.812 359.553 181.989 359.127 181.989 358.683C181.989 358.238 181.812 357.812 181.498 357.498C181.184 357.184 180.758 357.008 180.314 357.008Z" fill="white"/>
<path d="M235.773 262.085C235.329 262.085 234.903 262.262 234.589 262.576C234.274 262.89 234.098 263.316 234.098 263.76C234.098 264.205 234.274 264.631 234.589 264.945C234.903 265.259 235.329 265.435 235.773 265.435C236.217 265.435 236.643 265.259 236.957 264.945C237.272 264.631 237.448 264.205 237.448 263.76C237.448 263.316 237.272 262.89 236.957 262.576C236.643 262.262 236.217 262.085 235.773 262.085Z" fill="white"/>
<path d="M317.881 208.77C317.437 208.77 317.011 208.947 316.697 209.261C316.383 209.575 316.206 210.001 316.206 210.445C316.206 210.889 316.383 211.315 316.697 211.63C317.011 211.944 317.437 212.12 317.881 212.12C318.326 212.12 318.752 211.944 319.066 211.63C319.38 211.315 319.556 210.889 319.556 210.445C319.556 210.001 319.38 209.575 319.066 209.261C318.752 208.947 318.326 208.77 317.881 208.77Z" fill="white"/>
<path d="M368.014 417.793C367.57 417.793 367.144 417.97 366.83 418.284C366.516 418.598 366.339 419.024 366.339 419.468C366.339 419.913 366.516 420.339 366.83 420.653C367.144 420.967 367.57 421.143 368.014 421.143C368.459 421.143 368.885 420.967 369.199 420.653C369.513 420.339 369.689 419.913 369.689 419.468C369.689 419.024 369.513 418.598 369.199 418.284C368.885 417.97 368.459 417.793 368.014 417.793Z" fill="white"/>
<path d="M478.916 323.642C468.146 323.642 468.112 340.392 478.916 340.392C489.72 340.392 489.72 323.642 478.916 323.642Z" fill="#FFAE46"/>
<path d="M178.187 314.044C167.416 314.044 167.383 330.794 178.187 330.794C188.99 330.794 188.974 314.044 178.187 314.044Z" fill="#FFAE46"/>
<path d="M338.735 424.209C337.165 422.639 335.035 421.757 332.814 421.757C330.593 421.757 328.464 422.639 326.893 424.209C325.353 425.802 324.479 427.923 324.448 430.138V431.21C324.472 433.427 325.347 435.55 326.893 437.14C328.464 438.71 330.593 439.592 332.814 439.592C335.035 439.592 337.165 438.71 338.735 437.14C340.275 435.546 341.15 433.426 341.181 431.21V430.138C341.156 427.921 340.281 425.798 338.735 424.209Z" fill="#00AEE1"/>
<path d="M185.506 200.127C205.673 200.127 222.021 183.779 222.021 163.612C222.021 143.445 205.673 127.097 185.506 127.097C165.34 127.097 148.991 143.445 148.991 163.612C148.991 183.779 165.34 200.127 185.506 200.127Z" fill="#68E1FD"/>
<path d="M215.204 143.529C219.057 142.467 222.973 141.65 226.929 141.083C228.916 140.782 230.918 140.592 232.925 140.514C235.01 140.397 237.101 140.521 239.157 140.882C240.346 141.084 241.484 141.516 242.507 142.155C243.123 142.562 243.648 143.092 244.048 143.713C244.467 144.39 244.709 145.162 244.751 145.958C244.766 147.273 244.461 148.572 243.863 149.743C243.389 150.739 242.829 151.692 242.188 152.591C239.649 155.852 236.711 158.784 233.445 161.317C227.175 166.309 220.515 170.79 213.529 174.717C206.617 178.713 199.5 182.342 192.206 185.588C184.911 188.889 177.421 191.742 169.778 194.131C165.927 195.36 162.013 196.383 158.053 197.196C153.995 198.087 149.873 198.652 145.725 198.888C143.6 198.997 141.47 198.913 139.36 198.636C137.104 198.381 134.906 197.747 132.861 196.76C131.737 196.22 130.708 195.501 129.813 194.633C128.808 193.64 128.085 192.397 127.719 191.032C127.395 189.728 127.395 188.366 127.719 187.062C127.994 185.929 128.417 184.837 128.975 183.813C131.183 180.248 134.021 177.115 137.35 174.567C140.425 172.02 143.715 169.745 147.182 167.766C144.309 170.42 141.57 173.215 138.975 176.141C136.379 178.91 134.226 182.062 132.593 185.488C131.935 186.794 131.78 188.296 132.158 189.709C132.374 190.233 132.719 190.694 133.163 191.049C133.736 191.495 134.367 191.861 135.039 192.137C138.371 193.242 141.909 193.58 145.39 193.126C152.977 192.244 160.442 190.525 167.651 188C175.021 185.622 182.206 182.64 189.426 179.625C203.711 173.505 217.384 166.046 230.262 157.348C233.355 155.21 236.213 152.751 238.788 150.011C239.359 149.37 239.875 148.68 240.329 147.951C240.685 147.391 240.925 146.764 241.032 146.108C241.048 145.885 241.003 145.662 240.903 145.461C240.803 145.261 240.651 145.091 240.463 144.969C239.83 144.509 239.121 144.163 238.369 143.948C234.665 143.057 230.852 142.696 227.046 142.876C223.077 142.892 219.14 143.127 215.204 143.529Z" fill="#8CC63F"/>
</svg>
